<svg xmlns="http://www.w3.org/2000/svg" width="16" height="16" viewBox="0 0 16 16">
    <defs>
        <style>
            .cls-1{fill:#3498db}.cls-2{fill:#fff}
        </style>
    </defs>
    <g id="Group_472" data-name="Group 472" transform="translate(-461 -465)">
        <path id="Path_215" d="M14.7 9.795L14.928 12l-2.027.9L12 14.928 9.795 14.7 8 16l-1.795-1.3L4 14.928 3.1 12.9 1.072 12 1.3 9.795 0 8l1.3-1.795L1.072 4 3.1 3.1 4 1.072l2.205.228L8 0l1.795 1.3L12 1.072l.9 2.028 2.024.9-.224 2.205L16 8zm0 0" class="cls-1" data-name="Path 215" transform="translate(461 465)"/>
        <path id="Path_216" d="M131.622 155.716l-.755-.755-4.525 4.525-1.509-1.507-.755.752 2.264 2.269zm0 0" class="cls-2" data-name="Path 216" transform="translate(341.058 315.204)"/>
    </g>
</svg>
